
<svg version="1.1" id="Layer_1"  x="0px" y="0px"
	 width="279px" height="139px" viewBox="0 0 279 139" enableBackground="new 0 0 279 139" space="preserve">
<path fill="#FFFFFF" d="M36.616,133.605c-2.888-4.34-5.401-9.73-7.541-16.17c-2.059-6.545-3.605-13.494-4.639-20.848
	c-0.183-1.303-0.366-2.606-0.549-3.91c-0.184-1.303-0.32-2.612-0.41-3.929c-1.011,0.237-2.008,0.567-2.993,0.99
	c-0.998,0.33-1.949,0.653-2.854,0.971c-0.639,0.185-1.71,0.667-3.214,1.448c-1.411,0.768-2.323,1.371-2.736,1.809
	c-0.333,0.332-0.686,0.523-1.058,0.576c-0.745,0.104-0.976-0.527-0.694-1.896c0.362-1.475,0.883-2.497,1.563-3.067
	c0.506-0.45,1.611-1.033,3.314-1.747c1.783-0.82,3.134-1.342,4.052-1.566l4.39-1.186c-0.241-5.093-0.236-10.124,0.014-15.096
	c0.331-5.077,1.033-9.875,2.106-14.392c-1.158,0.542-2.303,1.178-3.434,1.907c-1.052,0.622-2.104,1.245-3.155,1.867
	c-0.946,0.702-2.19,1.637-3.735,2.803c-1.558,1.074-3.109,2.193-4.654,3.36c-1.452,1.153-2.59,2.167-3.417,3.043
	c-0.413,0.438-0.806,0.683-1.178,0.735c-0.279,0.04-0.438-0.081-0.478-0.36C5.212,68.202,5.44,67.458,6,66.715
	c0.573-0.65,1.499-1.492,2.777-2.526c1.266-1.127,2.578-2.261,3.936-3.401c1.359-1.14,2.431-1.956,3.216-2.445
	c1.558-1.073,3.222-2.066,4.992-2.98c1.757-1.006,3.521-1.966,5.291-2.879c1.167-4.53,2.911-8.667,5.233-12.411
	c1.161-1.872,2.847-3.722,5.058-5.552c2.198-1.922,4.553-3.061,7.066-3.414c1.49-0.209,2.951,0.06,4.385,0.808
	c1.527,0.734,3,2.094,4.417,4.078c0.265,0.533,0.41,0.892,0.436,1.078c0.105,0.745-0.076,1.149-0.541,1.215
	s-0.983-0.241-1.553-0.921c-1.139-2.023-2.825-2.877-5.059-2.563c-2.048,0.288-4.131,1.34-6.249,3.156s-3.597,3.448-4.438,4.896
	c-0.694,1.142-1.334,2.323-1.922,3.545c-0.495,1.208-1.036,2.423-1.624,3.646c1.982-0.753,3.925-1.454,5.827-2.101
	c1.982-0.753,3.978-1.414,5.987-1.98c1.742-0.435,3.445-0.816,5.107-1.145c1.742-0.435,3.451-0.77,5.127-1.005
	c4.282-0.602,8.244-0.779,11.886-0.531c3.722,0.142,6.838,0.7,9.348,1.676c0.89,0.254,1.786,0.888,2.688,1.9
	c0.982,0.906,1.551,1.918,1.708,3.035c0.105,0.745,0.03,1.562-0.225,2.452c-0.254,0.89-0.835,1.826-1.741,2.808
	c-0.839,0.783-1.491,1.207-1.957,1.272c-0.093,0.013-0.186,0.026-0.279,0.039c-0.013-0.093-0.02-0.14-0.02-0.14
	c-0.039-0.279,0.181-0.737,0.661-1.374c1.093-1.008,1.573-1.978,1.442-2.908c-0.144-1.024-0.833-1.876-2.068-2.557
	c-1.142-0.694-2.058-1.135-2.749-1.322c-5.846-1.741-12.771-2.05-20.776-0.925c-1.489,0.209-3.059,0.525-4.708,0.947
	c-1.662,0.329-3.271,0.697-4.828,1.105c-2.008,0.567-4.011,1.181-6.006,1.841c-1.903,0.647-3.792,1.387-5.668,2.221
	c-1.686,4.888-2.821,9.984-3.405,15.287c-0.583,5.303-0.742,10.594-0.475,15.871c0.545-0.172,1.098-0.297,1.656-0.375
	c0.651-0.092,1.303-0.184,1.955-0.274c4.189-0.589,8.231-0.872,12.125-0.851c3.882-0.07,6.773,0.235,8.672,0.918
	c1.195,0.401,1.852,1.021,1.97,1.858c0.092,0.651-0.354,0.856-1.337,0.615c-1.408-0.562-3.581-0.825-6.519-0.792
	c-2.858-0.073-5.916,0.119-9.174,0.577c-3.165,0.444-6.217,1.017-9.157,1.714c0.09,1.316,0.187,2.68,0.29,4.088
	c0.184,1.304,0.367,2.607,0.55,3.91c0.916,6.516,2.377,12.86,4.383,19.033c1.994,6.079,4.261,11.741,6.801,16.984
	c0.371,0.613,0.595,1.197,0.674,1.757c0.092,0.651-0.095,1.011-0.561,1.075C38.069,134.825,37.399,134.443,36.616,133.605z"/>
<path fill="#FFFFFF" d="M76.093,116.523c-1.21,0.17-2.213-0.211-3.008-1.144c-0.703-0.944-1.239-2.056-1.608-3.333
	c-0.276-1.29-0.42-2.314-0.432-3.072c-0.043-4.36,0.798-8.845,2.523-13.454c1.725-4.608,4.074-8.831,7.047-12.666
	c3.066-3.849,6.463-6.698,10.189-8.552c0.706-0.383,1.331-0.661,1.876-0.832c0.639-0.186,1.237-0.316,1.795-0.396
	c2.886-0.405,4.485,0.509,4.8,2.743c0.157,1.117-0.059,2.286-0.646,3.508l-0.862,1.973c-0.054,0.292-0.174,0.451-0.36,0.478
	s-0.346-0.095-0.478-0.36c-0.133-0.266-0.125-0.552,0.021-0.857c0.147-0.305,0.248-0.604,0.301-0.896
	c0.147-0.306,0.294-0.611,0.441-0.916c0.334-0.996,0.469-1.728,0.404-2.193c-0.092-0.651-0.43-1.031-1.015-1.139
	c-0.504-0.213-1.129-0.268-1.874-0.164c-0.372,0.053-0.785,0.158-1.237,0.316c-0.373,0.053-0.738,0.151-1.098,0.297
	c-1.863,0.926-3.467,2.006-4.813,3.239c-1.253,1.22-2.466,2.72-3.64,4.499c-1.427,2.004-2.915,4.586-4.464,7.746
	c-1.562,3.067-2.885,6.148-3.969,9.243c-0.991,3.082-1.469,5.761-1.434,8.033c-0.107,0.585-0.077,1.481,0.094,2.692
	c0.118,0.838,0.335,1.709,0.652,2.613c0.397,0.799,0.921,1.152,1.573,1.061c0.837-0.118,1.57-0.648,2.197-1.59
	c0.627-0.943,1.134-1.727,1.521-2.351c1.269-2.456,2.645-5.497,4.128-9.123s2.575-7.007,3.273-10.142l0.063-1.576
	c0.082-0.77,0.336-1.66,0.764-2.67c0.428-1.009,1.153-1.586,2.177-1.729c0.838-0.118,1.322,0.288,1.453,1.22
	c0.013,0.093-0.021,0.192-0.101,0.299c0.013,0.093,0.026,0.186,0.039,0.279c-0.071,2.193-0.05,4.373,0.065,6.541
	c0.102,2.073,0.303,4.182,0.604,6.321c0.536,3.817,1.308,6.604,2.314,8.361c0.993,1.664,2.048,2.417,3.166,2.26
	s2.242-0.932,3.375-2.325c1.226-1.406,2.34-2.938,3.341-4.599c1.081-1.767,1.888-3.112,2.422-4.042l2.483-4.621
	c0.227-0.411,0.433-0.631,0.619-0.656c0.187-0.026,0.299,0.1,0.339,0.379c0.065,0.466,0.024,0.852-0.123,1.156
	c-0.708,1.714-1.59,3.547-2.644,5.498c-0.975,1.846-2.123,3.811-3.443,5.895c-1.001,1.66-2.174,3.105-3.521,4.34
	c-1.345,1.232-2.669,1.941-3.973,2.124c-1.21,0.17-2.405-0.231-3.586-1.204c-1.181-0.975-2.287-2.764-3.318-5.372
	c-0.33-0.998-0.726-2.461-1.187-4.39c-0.381-2.034-0.675-4.129-0.883-6.283c-0.362,1.475-0.918,3.262-1.667,5.359
	c-0.749,2.1-1.685,4.225-2.806,6.375c-1.042,2.045-2.262,3.83-3.661,5.356C78.986,115.5,77.582,116.314,76.093,116.523z"/>
<path fill="#FFFFFF" d="M120.171,112.607c-0.372,0.052-1.216,0.123-2.533,0.213c-1.223,0.078-1.954-0.057-2.191-0.403
	c0,0-0.113-0.127-0.338-0.38l-0.358-0.52c-0.026-0.186,0.24-0.317,0.798-0.396c0.931-0.131,1.769-0.249,2.514-0.354
	c0.824-0.211,1.656-0.375,2.493-0.492c0.838-0.118,1.842-0.401,3.013-0.852c1.158-0.542,2.157-1.204,2.996-1.986
	c0.826-0.875,1.167-1.826,1.023-2.85c-0.091-0.652-0.462-1.264-1.112-1.837c-0.57-0.679-1.114-1.172-1.632-1.479
	c-2.032-0.948-4.17-1.977-6.414-3.086c-2.244-1.107-4.195-2.494-5.853-4.16c-1.671-1.759-2.683-3.895-3.036-6.408
	s0.085-5.138,1.314-7.873c1.309-2.842,3.117-5.517,5.422-8.023c2.305-2.508,4.763-4.609,7.372-6.305
	c2.69-1.802,5.245-2.873,7.665-3.213c1.582-0.223,3.323,0.007,5.223,0.689c1.979,0.576,3.1,1.795,3.361,3.657
	c0.079,0.558-0.036,1.429-0.345,2.611c-0.228,1.076-0.668,1.66-1.32,1.751c-0.279,0.04-0.485-0.074-0.617-0.34
	c-0.039-0.279-0.072-0.512-0.098-0.698c-0.079-0.559-0.104-1.077-0.076-1.555c0.014-0.572-0.011-1.09-0.077-1.556
	c-0.235-1.676-1.191-2.396-2.866-2.16c-2.234,0.314-4.609,1.312-7.126,2.995c-2.529,1.59-4.907,3.585-7.132,5.986
	c-2.226,2.4-3.953,4.969-5.182,7.705s-1.667,5.36-1.314,7.873c0.275,1.955,1.321,3.659,3.139,5.112
	c1.805,1.36,3.836,2.641,6.093,3.843c2.337,1.096,4.388,2.183,6.154,3.264c1.766,1.081,2.747,2.319,2.943,3.717
	c0.222,1.582-0.445,2.909-2.003,3.982c-1.465,1.061-3.202,1.874-5.21,2.441C122.944,112.075,121.381,112.438,120.171,112.607z"/>
<path fill="#FFFFFF" d="M151.223,112.516c-0.44,0.25-0.692,0.144-0.758-0.322c-0.939-1.955-1.706-4.031-2.299-6.227
	c-0.607-2.287-1.086-4.688-1.439-7.201c-0.393-2.793-0.651-5.651-0.778-8.576c-0.126-2.925-0.199-5.81-0.22-8.654
	c0.078-4.853,0.248-9.717,0.512-14.596c0.264-4.878,0.674-9.729,1.229-14.554c0.081-0.771,0.25-1.934,0.507-3.488
	c0.349-1.568,0.731-3.235,1.147-5.002c0.509-1.78,1.051-3.328,1.626-4.643c0.563-1.408,1.155-2.25,1.78-2.528
	c0.079-0.106,0.214-0.172,0.399-0.199c0.187-0.026,0.393,0.087,0.617,0.341c0.225,0.253,0.398,0.466,0.518,0.639
	c0.132,0.266,0.237,0.678,0.315,1.237c0.144,1.024,0.049,2.034-0.286,3.03c-0.496,1.874-0.999,3.7-1.508,5.48
	c-0.416,1.767-0.818,3.627-1.209,5.581c-0.672,3.322-1.313,7.541-1.923,12.658c-0.623,5.023-1.06,10.354-1.312,15.989
	c-0.173,5.529-0.059,10.734,0.342,15.614c0.566-3.401,1.512-6.81,2.836-10.224c1.404-3.52,2.893-6.434,4.466-8.743
	c0.479-0.638,1.073-1.147,1.778-1.531c0.267-0.132,0.586-0.225,0.957-0.277c0.932-0.131,1.603,0.25,2.013,1.142
	c0.384,0.705,1.005,2.09,1.864,4.151c0.939,1.956,1.992,4.04,3.156,6.249c1.165,2.209,2.33,4.086,3.497,5.631
	c0.929,1.199,2.043,1.706,3.347,1.523c1.117-0.157,2.136-0.68,3.055-1.568c0.999-0.995,1.713-1.997,2.14-3.006
	c0.214-0.506,0.461-0.777,0.74-0.816s0.444,0.127,0.497,0.5c0.025,0.186-0.067,0.531-0.281,1.035
	c-0.601,1.129-1.428,2.337-2.48,3.624c-0.961,1.274-1.846,2.063-2.658,2.367c-0.173,0.119-0.399,0.198-0.678,0.237
	c-0.279,0.039-0.513,0.072-0.698,0.099c-0.931,0.131-1.843,0.069-2.732-0.187c-0.81-0.36-1.605-0.96-2.388-1.799
	c-1.578-1.772-3.049-3.796-4.413-6.072c-1.284-2.383-2.291-4.14-3.019-5.271c-1.193-1.73-2.161-2.544-2.906-2.439
	c-0.652,0.092-1.324,0.709-2.018,1.85c-1.683,2.895-2.887,6.481-3.615,10.76c-0.74,4.186-1.107,7.986-1.103,11.404
	c0.25,1.104,0.534,2.107,0.851,3.013c0.33,0.998,0.701,1.942,1.11,2.834C151.854,111.951,151.661,112.264,151.223,112.516z"/>
<path fill="#FFFFFF" d="M186.205,63.743c-0.372,0.053-0.805,0.019-1.296-0.103c-0.398-0.134-0.638-0.48-0.716-1.039
	c-0.144-1.024,0.351-1.9,1.482-2.628c1.211-0.835,2.236-1.311,3.074-1.429c0.465-0.065,0.896-0.031,1.296,0.103
	c0.491,0.121,0.771,0.414,0.835,0.879c0.145,1.024-0.39,1.954-1.602,2.788C188.068,63.149,187.043,63.626,186.205,63.743z"/>
<path fill="#FFFFFF" d="M198.998,93.982c-1.16,1.871-2.4,3.518-3.721,4.937c-1.238,1.313-2.51,2.062-3.813,2.245
	c-1.21,0.17-2.358-0.238-3.446-1.225c-1.101-1.079-2.166-2.923-3.197-5.531c-0.211-0.824-0.521-2.015-0.93-3.57
	c-0.315-1.57-0.591-3.192-0.826-4.868c-0.248-1.769-0.438-3.45-0.567-5.046c-0.049-1.701-0.093-3.025-0.13-3.969
	c0.081-0.771,0.336-1.66,0.764-2.67c0.52-1.022,1.246-1.6,2.178-1.73c0.838-0.117,1.321,0.289,1.452,1.221
	c0.013,0.092-0.021,0.191-0.101,0.299c0.014,0.092,0.027,0.186,0.04,0.279c-0.072,2.192-0.05,4.373,0.065,6.54
	c0.101,2.074,0.303,4.182,0.603,6.322c0.524,3.724,1.182,6.384,1.976,7.981c0.887,1.584,1.889,2.297,3.008,2.14
	c0.836-0.118,1.762-0.627,2.774-1.528c0.999-0.995,2.104-2.242,3.317-3.742c1.054-1.287,2.041-2.707,2.962-4.26
	c0.921-1.554,1.883-3.492,2.885-5.816c0.121-0.492,0.367-0.764,0.739-0.816c0.652-0.092,0.811,0.361,0.476,1.357
	c-0.722,1.62-1.655,3.412-2.804,5.377S200.318,91.898,198.998,93.982z"/>
<path fill="#FFFFFF" d="M277.96,96.7c-0.04-0.28-0.11-0.41-0.2-0.4c-0.1,0.01-0.18,0.07-0.26,0.181
	c-0.07,0.199-0.14,0.35-0.22,0.449c-0.261,0.891-0.811,1.681-1.66,2.37c-0.76,0.681-1.51,1.07-2.26,1.17
	c-1.21,0.17-2.511-0.31-3.9-1.439c-1.29-1.05-2.17-2.54-2.63-4.471c-0.18-0.64-0.37-1.329-0.57-2.06c-0.1-0.74-0.21-1.49-0.31-2.23
	c-0.48-3.35-0.73-6.88-0.78-10.569c0.04-3.8,0.19-7.15,0.44-10.03c0.25-2.98,0.409-4.85,0.5-5.62c0.1-0.59,0.14-1.02,0.1-1.3
	c-0.12-0.84-0.5-1.21-1.16-1.12c-0.93,0.13-1.79,0.73-2.59,1.79c-0.82,0.97-1.4,1.86-1.76,2.67c-0.67,1.33-1.521,2.73-2.54,4.2
	c-1.03,1.47-1.97,2.93-2.811,4.38c-0.93,1.46-1.79,2.771-2.58,3.92c-0.8,1.07-1.76,2.34-2.88,3.83c0.71-1.72,1.061-3.62,1.051-5.71
	c0.069-2.19-0.021-4.22-0.28-6.08c-0.75-5.3-2.37-9.44-4.88-12.41c-2.41-2.98-5.67-4.19-9.761-3.61c-2.239,0.31-4.77,1.24-7.59,2.77
	l-2.25,1.17l-1.54,0.22c-3.72,0.52-7.25,2.11-10.58,4.76c-3.25,2.55-5.85,5.33-7.79,8.36c-1.1,1.67-2.039,3.75-2.829,6.23
	c-0.7,2.47-0.9,4.729-0.61,6.78c0.27,1.96,1.1,3.449,2.479,4.489c0.04,0.28,0.03,0.57-0.02,0.86c0.04,0.28,0.08,0.56,0.12,0.84
	c0.34,2.42,1.5,3.96,3.49,4.63c1.979,0.58,4,0.721,6.05,0.44c2.97-0.42,5.91-1.45,8.819-3.101c2.881-1.729,5.48-3.899,7.771-6.5
	c2.38-2.609,4.17-5.43,5.36-8.439c1.27-3.12,1.689-6.22,1.26-9.29c-0.76-5.4-3.5-8.67-8.21-9.81c2.74-1.43,5.09-2.28,7.04-2.56
	c5.3-0.74,8.46,2.42,9.45,9.5c0.25,1.77,0.409,3.93,0.479,6.48c0.08,2.55,0,5.079-0.21,7.579c-0.22,2.49-0.59,4.631-1.09,6.41
	c-0.23,0.42-0.311,0.9-0.23,1.46c0.091,0.65,0.41,1.221,0.96,1.721c0.54,0.489,1.141,0.689,1.79,0.6
	c0.091-0.01,0.141-0.02,0.141-0.02c0.08-0.11,0.17-0.171,0.26-0.181c0.7-0.38,1.12-0.819,1.24-1.31c0.109-0.59,0.26-1.181,0.46-1.78
	c0.2-0.59,0.88-1.88,2.02-3.84c1.15-1.97,2.42-4.09,3.811-6.37c1.38-2.29,2.55-4.11,3.5-5.479c0.949-1.371,1.699-2.09,2.26-2.17
	c0.46-0.06,0.77,0.42,0.91,1.44c0.13,0.93,0.149,2.07,0.05,3.41c-0.01,1.24-0.08,2.1-0.2,2.59c-0.14,2.39-0.359,4.89-0.66,7.5
	c-0.22,2.5-0.149,4.96,0.19,7.38c0.17,1.21,0.43,2.4,0.78,3.59c0.47,1.261,1.1,2.41,1.909,3.431c0.931,1.199,2.25,2.149,3.96,2.859
	c1.721,0.71,3.181,0.98,4.391,0.811c0.74-0.11,1.75-0.67,3.03-1.71C277.58,99.41,278.17,98.19,277.96,96.7z M205.92,84.61
	c-0.229-3.011,0.34-6.03,1.71-9.07c1.46-3.15,3.39-5.93,5.811-8.36c2.489-2.54,5.18-4.34,8.06-5.41c-2.98,2.42-5.58,5.15-7.81,8.22
	c-2.15,2.96-3.891,5.77-5.23,8.42C207.13,81.07,206.28,83.13,205.92,84.61z M232.83,63.31c1.36,1.62,2.229,3.72,2.59,6.33
	c0.54,3.82-0.17,7.57-2.12,11.26c-1.96,3.6-4.62,6.63-7.97,9.1c-3.36,2.46-6.9,3.96-10.62,4.48c-1.77,0.25-3.21,0.119-4.33-0.391
	c-1.03-0.609-1.67-1.8-1.92-3.57c0.38,0.04,0.771,0.08,1.15,0.12c0.39,0.04,0.77,0.03,1.14-0.02s0.54-0.22,0.5-0.5
	c-0.03-0.18-0.48-0.36-1.36-0.521c-0.79-0.26-1.34-0.47-1.649-0.619c-0.11-2.171,0.63-4.98,2.229-8.431c1.7-3.46,4-7.01,6.91-10.65
	c2.9-3.64,6.17-6.71,9.811-9.21C229.58,60.83,231.46,61.7,232.83,63.31z"/>
</svg>
