<svg width="146" height="74" viewBox="0 0 146 74" fill="none" xmlns="http://www.w3.org/2000/svg">
<path d="M37.16 49.36C33.48 49.36 29.7733 48.5867 26.04 47.04C22.3067 45.5467 18.68 43.8933 15.16 42.08C14.7867 42.7733 14.4667 43.4133 14.2 44C13.9333 44.64 13.6667 45.1733 13.4 45.6C11.96 48.0533 10.28 49.28 8.36 49.28C6.6 49.28 4.97333 48.2667 3.48 46.24C2.62667 45.0133 1.93333 43.6267 1.4 42.08C0.866667 40.5333 0.6 39.0933 0.6 37.76C0.6 36.5333 0.813333 35.52 1.24 34.72C1.72 33.92 2.46667 33.52 3.48 33.52C4.54667 33.52 6.06667 34.0267 8.04 35.04C10.0133 36.0533 12.28 37.28 14.84 38.72C16.76 33.9733 18.5733 29.1733 20.28 24.32C21.9867 19.4667 23.88 14.6933 25.96 10C26.6 8.56 27.4533 7.12 28.52 5.68C29.5867 4.18666 30.8133 2.96 32.2 2C33.5867 0.986664 35.0533 0.479998 36.6 0.479998C37.7733 0.479998 39 0.879997 40.28 1.68C41.56 2.53333 42.5467 3.81333 43.24 5.52C43.9867 7.17333 44.4933 8.88 44.76 10.64C45.08 12.3467 45.2133 13.7333 45.16 14.8C45.1067 15.0133 44.9467 15.2267 44.68 15.44C44.4133 15.6 44.3067 15.4933 44.36 15.12C44.2533 13.6267 43.9067 12.08 43.32 10.48C42.7867 8.82666 41.96 7.41333 40.84 6.24C39.7733 5.06666 38.3333 4.48 36.52 4.48C35.1867 4.48 33.8533 5.09333 32.52 6.32C31.1867 7.49333 29.9067 9.06666 28.68 11.04C27.4533 13.12 26.2267 15.52 25 18.24C23.7733 20.9067 22.6267 23.6267 21.56 26.4C20.4933 29.12 19.5067 31.6533 18.6 34C17.6933 36.2933 16.9467 38.1067 16.36 39.44C18.76 40.72 21.2933 42 23.96 43.28C26.68 44.56 29.4 45.6267 32.12 46.48C34.84 47.3333 37.4533 47.76 39.96 47.76C41.56 47.7067 42.8933 47.2267 43.96 46.32C45.0267 45.4133 45.4267 44.0533 45.16 42.24C45 41.4933 44.68 40.88 44.2 40.4C43.7733 39.92 43.5867 39.5733 43.64 39.36C43.7467 39.0933 43.88 38.9867 44.04 39.04C44.2533 39.0933 44.44 39.1733 44.6 39.28C46.36 40.56 47.24 41.9467 47.24 43.44C47.24 44.8267 46.52 46.0533 45.08 47.12C43.6933 48.24 41.9867 48.9333 39.96 49.2C39.48 49.2533 39 49.28 38.52 49.28C38.0933 49.3333 37.64 49.36 37.16 49.36ZM8.28 48.24C8.97333 48.24 9.66667 47.92 10.36 47.28C11.0533 46.64 11.6667 45.8133 12.2 44.8C12.6267 44.0533 13.16 42.9067 13.8 41.36C12.84 40.88 11.9067 40.4 11 39.92C10.1467 39.44 9.26667 39.0133 8.36 38.64C7.18667 38.0533 6.25333 37.76 5.56 37.76C4.65333 37.76 4.2 38.3733 4.2 39.6C4.2 39.8133 4.2 40.08 4.2 40.4C4.25333 40.6667 4.30667 40.9867 4.36 41.36C4.68 43.8133 5.18667 45.5733 5.88 46.64C6.62667 47.7067 7.42667 48.24 8.28 48.24ZM64.405 44.72C62.9117 44.72 62.165 43.5733 62.165 41.28C62.165 39.84 62.3783 38.48 62.805 37.2C63.2317 35.8667 63.6317 34.5333 64.005 33.2C63.1517 34.1067 62.325 34.9867 61.525 35.84C60.7783 36.6933 59.9517 37.5467 59.045 38.4C58.1917 39.2 57.3117 40 56.405 40.8C55.4983 41.5467 54.5917 42.2133 53.685 42.8C52.0317 43.8667 50.7783 44.4 49.925 44.4C49.0717 44.4 48.645 43.8933 48.645 42.88C48.645 41.7067 49.0983 40.1333 50.005 38.16C50.5383 36.9867 51.2583 35.7067 52.165 34.32C53.125 32.9333 54.1117 31.5733 55.125 30.24C56.085 29.0667 57.205 27.8667 58.485 26.64C59.8183 25.4133 61.2583 24.3733 62.805 23.52C64.3517 22.6667 65.8983 22.24 67.445 22.24C68.6717 22.24 69.685 22.5333 70.485 23.12C71.3383 23.6533 71.765 24.5333 71.765 25.76C71.765 27.04 71.525 27.8133 71.045 28.08C70.885 28.24 70.7783 28.2933 70.725 28.24C70.6717 28.1867 70.645 28.16 70.645 28.16C70.5917 27.6267 70.3517 27.0933 69.925 26.56C69.4983 25.9733 68.965 25.5733 68.325 25.36C67.6317 25.1467 66.8583 25.04 66.005 25.04C64.0317 25.04 62.165 25.6267 60.405 26.8C58.6983 27.92 57.2317 29.2533 56.005 30.8C54.9917 32.1333 54.165 33.52 53.525 34.96C52.9383 36.3467 52.645 37.5733 52.645 38.64C52.645 40.24 53.0717 41.04 53.925 41.04C54.4583 41.04 55.045 40.8 55.685 40.32C56.325 39.84 56.8583 39.4133 57.285 39.04C58.8317 37.6533 60.2717 36.1333 61.605 34.48C62.9917 32.7733 63.9517 31.5733 64.485 30.88C64.5917 30.7733 64.885 30.6133 65.365 30.4C65.8983 30.1333 66.4583 29.92 67.045 29.76L68.725 29.36C69.045 29.36 69.205 29.3867 69.205 29.44C68.885 29.8667 68.4317 30.7467 67.845 32.08C67.3117 33.4133 66.8317 34.8533 66.405 36.4C65.9783 37.8933 65.765 39.1733 65.765 40.24C65.765 41.0933 65.925 41.6533 66.245 41.92C66.405 42.08 66.6183 42.16 66.885 42.16C67.3117 42.16 67.765 42.0267 68.245 41.76C68.725 41.44 69.2317 41.0933 69.765 40.72C71.6317 39.3333 73.3917 37.6267 75.045 35.6C76.7517 33.5733 78.1917 31.76 79.365 30.16C79.365 30.16 79.4183 30.2133 79.525 30.32C79.6317 30.5867 79.6317 30.8 79.525 30.96C78.8317 31.8667 78.1117 32.8267 77.365 33.84C76.6183 34.8 75.8717 35.76 75.125 36.72C74.325 37.6267 73.4983 38.5333 72.645 39.44C71.845 40.2933 70.9917 41.0933 70.085 41.84C69.0183 42.6933 67.9783 43.3867 66.965 43.92C66.005 44.4533 65.1517 44.72 64.405 44.72ZM63.2694 73.52C60.016 73.52 57.3227 72.9067 55.1894 71.68C53.0027 70.5067 51.9094 68.8267 51.9094 66.64C51.9094 65.2533 52.4427 63.6533 53.5094 61.84C54.5227 60.0267 56.176 58.0533 58.4694 55.92C60.976 53.5733 64.0427 51.5733 67.6694 49.92C71.296 48.32 75.0827 47.0667 79.0294 46.16C83.0294 45.3067 86.7894 44.8267 90.3094 44.72C90.3094 42.8 90.256 40.88 90.1494 38.96C90.096 36.9867 90.016 35.04 89.9094 33.12C88.9494 35.04 87.9894 36.5867 87.0294 37.76C85.696 39.4133 84.256 40.72 82.7094 41.68C81.216 42.64 79.8027 43.28 78.4694 43.6C77.616 43.8133 76.7894 43.92 75.9894 43.92C74.816 43.92 73.9894 43.6533 73.5094 43.12C73.0294 42.5867 72.7894 41.8933 72.7894 41.04C72.7894 39.7067 73.1894 38.24 73.9894 36.64C74.8427 35.04 75.936 33.5733 77.2694 32.24C78.176 31.3333 79.056 30.5867 79.9094 30C80.816 29.4133 81.776 28.8 82.7894 28.16C84.1227 27.36 85.2694 26.6667 86.2294 26.08C87.1894 25.4933 88.256 24.7733 89.4294 23.92C89.4294 23.6 89.456 23.28 89.5094 22.96C89.5627 22.64 89.616 22.3733 89.6694 22.16C89.936 20.9867 90.3894 20.16 91.0294 19.68C91.6694 19.1467 92.256 18.88 92.7894 18.88C93.4827 18.88 93.8294 19.2267 93.8294 19.92C93.8294 20.5067 93.4294 21.28 92.6294 22.24L90.4694 24.32L90.7094 26.48C91.0827 29.5733 91.5627 32.64 92.1494 35.68C92.736 38.6667 93.1627 41.7067 93.4294 44.8H93.5094C95.7494 44.8 97.376 45.12 98.3894 45.76C99.4027 46.4 99.936 47.1467 99.9894 48C99.9894 48.64 99.8294 48.96 99.5094 48.96C99.2427 48.96 99.1094 48.72 99.1094 48.24C99.1094 47.6533 98.7627 47.1733 98.0694 46.8C97.376 46.48 96.576 46.2133 95.6694 46C94.816 45.7867 94.096 45.6533 93.5094 45.6C93.5627 45.9733 93.5894 46.3467 93.5894 46.72C93.5894 47.1467 93.5894 47.5733 93.5894 48C93.5894 51.9467 92.816 55.44 91.2694 58.48C89.7227 61.5733 87.616 64.1867 84.9494 66.32C82.2827 68.4533 79.2427 70.1067 75.8294 71.28C72.416 72.5067 68.816 73.2267 65.0294 73.44C64.7627 73.44 64.4694 73.44 64.1494 73.44C63.8294 73.4933 63.536 73.52 63.2694 73.52ZM79.5894 42C80.7627 42 81.776 41.7067 82.6294 41.12C83.536 40.48 84.7894 39.2533 86.3894 37.44C87.0827 36.64 87.696 35.8133 88.2294 34.96C88.7627 34.0533 89.296 33.0133 89.8294 31.84C89.776 30.9867 89.696 30.1333 89.5894 29.28C89.536 28.4267 89.5094 27.6 89.5094 26.8V25.2L85.5894 28.32C84.3094 29.3333 83.056 30.4 81.8294 31.52C80.656 32.5867 79.5627 33.8133 78.5494 35.2C78.176 35.7333 77.8294 36.4 77.5094 37.2C77.2427 37.9467 77.1094 38.6933 77.1094 39.44C77.1094 40.1333 77.296 40.7467 77.6694 41.28C78.0427 41.76 78.6827 42 79.5894 42ZM62.1494 72.56C63.056 72.56 64.016 72.48 65.0294 72.32C69.7227 71.6267 73.9627 70.1067 77.7494 67.76C81.5894 65.4667 84.6294 62.4267 86.8694 58.64C89.1627 54.9067 90.3094 50.5867 90.3094 45.68V45.6C86.9494 45.7067 83.536 46.16 80.0694 46.96C76.656 47.8133 73.376 49.0133 70.2294 50.56C67.0827 52.1067 64.2827 54.0267 61.8294 56.32C59.3227 58.6667 57.5094 60.7733 56.3894 62.64C55.2694 64.5067 54.7094 66.1333 54.7094 67.52C54.7094 69.1733 55.4027 70.4267 56.7894 71.28C58.1227 72.1333 59.9094 72.56 62.1494 72.56ZM103.284 44.72C102.004 44.72 100.91 44.24 100.004 43.28C99.1504 42.32 98.7238 40.8267 98.7238 38.8C98.7238 36.9867 99.1238 35.1733 99.9238 33.36C100.724 31.5467 101.79 29.92 103.124 28.48C104.51 26.9867 106.03 25.8667 107.684 25.12C108.11 24.96 108.51 24.8267 108.884 24.72C109.257 24.6133 109.63 24.56 110.004 24.56C110.804 24.56 111.497 24.7733 112.084 25.2C112.67 25.6267 112.964 26.2933 112.964 27.2C112.964 27.4133 112.937 27.6 112.884 27.76C112.884 27.92 112.857 28.1067 112.804 28.32C112.75 28.5333 112.59 28.6667 112.324 28.72C112.11 28.7733 112.004 28.6933 112.004 28.48C112.11 27.5733 111.924 26.88 111.444 26.4C111.017 25.8667 110.457 25.6 109.764 25.6C109.284 25.6 108.83 25.7067 108.404 25.92C107.07 26.56 105.897 27.5467 104.884 28.88C103.924 30.16 103.177 31.5733 102.644 33.12C102.164 34.6667 101.924 36.16 101.924 37.6C101.977 40.6933 103.017 42.24 105.044 42.24C106.164 42.24 107.337 41.7867 108.564 40.88C109.79 39.9733 110.857 38.72 111.764 37.12C112.67 35.52 113.39 33.8133 113.924 32C114.457 30.1333 114.724 28.4533 114.724 26.96C114.724 26.0533 114.617 25.2267 114.404 24.48C114.19 23.7333 113.817 23.1733 113.284 22.8C113.017 22.5867 112.59 22.48 112.004 22.48C111.097 22.48 110.404 22.6667 109.924 23.04C109.604 23.2533 109.417 23.36 109.364 23.36C109.15 23.36 109.044 23.2267 109.044 22.96C109.044 22.7467 109.15 22.48 109.364 22.16C109.684 21.6267 110.19 21.2267 110.884 20.96C111.577 20.6933 112.297 20.56 113.044 20.56C113.897 20.56 114.644 20.7467 115.284 21.12C116.67 21.8667 117.364 23.44 117.364 25.84C117.364 27.5467 116.99 29.4667 116.244 31.6C115.55 33.7333 114.564 35.7867 113.284 37.76C112.057 39.68 110.644 41.2533 109.044 42.48C107.124 43.9733 105.204 44.72 103.284 44.72ZM121.806 51.6C120.686 51.6 119.833 51.1467 119.246 50.24C118.66 49.3333 118.233 48.2933 117.966 47.12C117.753 46 117.593 45.04 117.486 44.24C116.633 43.8667 115.94 43.4667 115.406 43.04C114.926 42.56 114.686 42.1333 114.686 41.76C114.686 41.6 114.793 41.4133 115.006 41.2C115.166 40.9867 115.353 40.88 115.566 40.88C115.993 41.04 116.58 41.2533 117.326 41.52C118.126 41.7867 118.953 42.0267 119.806 42.24C120.66 42.4 121.353 42.4533 121.886 42.4C122.046 41.4933 122.153 40.5867 122.206 39.68C122.313 38.72 122.393 37.8133 122.446 36.96C122.553 36.0533 122.66 35.1733 122.766 34.32C122.873 33.4133 123.033 32.5333 123.246 31.68C123.993 29.0667 125.166 26.8267 126.766 24.96C128.42 23.0933 130.766 21.6267 133.806 20.56C134.713 20.2933 135.486 20.16 136.126 20.16C136.926 20.16 137.646 20.32 138.286 20.64C138.926 20.96 139.3 21.44 139.406 22.08C139.46 22.24 139.486 22.4533 139.486 22.72C139.486 23.7867 139.06 24.8267 138.206 25.84C137.406 26.8 136.446 27.6533 135.326 28.4C134.26 29.1467 133.3 29.7067 132.446 30.08C132.393 30.1333 132.366 30.08 132.366 29.92C132.42 29.76 132.446 29.68 132.446 29.68C132.873 29.52 133.486 29.12 134.286 28.48C135.086 27.84 135.753 27.1733 136.286 26.48C136.873 25.7333 137.166 25.0667 137.166 24.48C137.166 23.7333 136.686 23.36 135.726 23.36C135.3 23.36 134.793 23.44 134.206 23.6C132.233 24.1333 130.34 25.04 128.526 26.32C126.766 27.6 125.513 29.28 124.766 31.36C124.446 32.2667 124.206 33.36 124.046 34.64C123.94 35.8667 123.886 37.0933 123.886 38.32C123.886 39.1733 123.913 39.9733 123.966 40.72C124.02 41.4667 124.073 42.0533 124.126 42.48C124.5 42.5333 124.846 42.56 125.166 42.56C125.486 42.56 125.806 42.56 126.126 42.56C127.726 42.56 129.246 42.3467 130.686 41.92C132.18 41.44 133.593 40.6933 134.926 39.68C136.473 38.5067 137.94 37.04 139.326 35.28C140.766 33.52 141.913 32.0267 142.766 30.8C142.82 30.7467 142.9 30.72 143.006 30.72C143.273 30.72 143.406 30.9067 143.406 31.28C143.406 31.3333 143.14 31.7067 142.606 32.4C142.126 33.0933 141.486 33.9467 140.686 34.96C139.94 35.9733 139.113 36.9867 138.206 38C137.353 38.96 136.553 39.76 135.806 40.4C133.993 41.7867 132.206 42.7467 130.446 43.28C128.74 43.76 127.273 44 126.046 44C125.673 44 125.326 44 125.006 44C124.74 43.9467 124.473 43.8933 124.206 43.84C124.153 44.32 124.1 44.96 124.046 45.76C123.993 46.6133 123.886 47.4933 123.726 48.4C123.566 49.3067 123.326 50.0533 123.006 50.64C122.74 51.28 122.34 51.6 121.806 51.6ZM120.046 48.08C120.686 48.08 121.14 47.6267 121.406 46.72L121.806 44.32C121.326 44.32 120.846 44.2933 120.366 44.24C119.886 44.1867 119.326 44.1333 118.686 44.08C118.633 44.4533 118.66 44.9333 118.766 45.52C118.873 46.1067 118.953 46.5333 119.006 46.8C119.166 47.6533 119.513 48.08 120.046 48.08ZM142.772 44.4C142.345 44.4 141.972 44.16 141.652 43.68C141.385 43.2533 141.252 42.9067 141.252 42.64C141.252 42.2667 141.385 41.9467 141.652 41.68C141.919 41.4133 142.239 41.1467 142.612 40.88C143.465 40.24 144.212 39.92 144.852 39.92C145.492 39.92 145.812 40.2133 145.812 40.8C145.812 41.6 145.252 42.56 144.132 43.68C143.652 44.16 143.199 44.4 142.772 44.4Z" fill="white"/>
</svg>
